<?xml version="1.0" standalone="no"?><!DOCTYPE svg PUBLIC "-//W3C//DTD SVG 1.1//EN" "http://www.w3.org/Graphics/SVG/1.1/DTD/svg11.dtd"><svg t="1583480068902" class="icon" viewBox="0 0 1024 1024" version="1.1" xmlns="http://www.w3.org/2000/svg" p-id="1785" xmlns:xlink="http://www.w3.org/1999/xlink" width="200" height="200"><defs><style type="text/css"></style></defs><path d="M512 25.6C244.622222 25.6 28.444444 241.777778 28.444444 509.155556s216.177778 483.555556 483.555556 483.555555 483.555556-216.177778 483.555556-483.555555-216.177778-483.555556-483.555556-483.555556z m0 910.222222c-236.088889 0-426.666667-190.577778-426.666667-426.666666s190.577778-426.666667 426.666667-426.666667 426.666667 190.577778 426.666667 426.666667-190.577778 426.666667-426.666667 426.666666z" p-id="1786"></path><path d="M696.888889 281.6L512 469.333333l-184.888889-187.733333-42.666667 42.666667 187.733334 184.888889-187.733334 184.888888 42.666667 42.666667 184.888889-187.733333 184.888889 187.733333 42.666667-42.666667-187.733334-184.888888 187.733334-184.888889z" p-id="1787"></path></svg>