<?xml version="1.0" standalone="no"?><!DOCTYPE svg PUBLIC "-//W3C//DTD SVG 1.1//EN" "http://www.w3.org/Graphics/SVG/1.1/DTD/svg11.dtd"><svg t="1583480192278" class="icon" viewBox="0 0 1024 1024" version="1.1" xmlns="http://www.w3.org/2000/svg" p-id="1170" xmlns:xlink="http://www.w3.org/1999/xlink" width="200" height="200"><defs><style type="text/css"></style></defs><path d="M797.4784 983.6608H226.5216A186.42986667 186.42986667 0 0 1 40.3392 797.4784V226.5216A186.42986667 186.42986667 0 0 1 226.5216 40.3392H512a37.23733333 37.23733333 0 0 1 0 74.47253333H226.5216a111.95733333 111.95733333 0 0 0-111.70986667 111.70986667v570.9568a111.95733333 111.95733333 0 0 0 111.70986667 111.70986667h570.9568a111.95733333 111.95733333 0 0 0 111.70986667-111.70986667V512a37.23733333 37.23733333 0 0 1 74.47253333 0v285.4784a186.42986667 186.42986667 0 0 1-186.1824 186.1824z" p-id="1171"></path><path d="M499.58826667 561.648a37.4848 37.4848 0 0 1-26.31466667-10.92266667 36.98773333 36.98773333 0 0 1 0-52.6272l446.83733333-446.83626666a37.23733333 37.23733333 0 0 1 52.6272 52.6272l-446.83733333 446.83733333a37.4848 37.4848 0 0 1-26.31253333 10.92266667z" p-id="1172"></path><path d="M946.42453333 114.81173333H747.82933333a37.23733333 37.23733333 0 0 1 0-74.47253333h198.59413334a37.23733333 37.23733333 0 0 1 0 74.47253333z" p-id="1173"></path><path d="M946.42453333 313.40586667a37.23733333 37.23733333 0 0 1-37.23733333-37.23626667V77.57546667a37.23733333 37.23733333 0 0 1 74.4736 0V276.17066667a37.23733333 37.23733333 0 0 1-37.23733333 37.23733333z" p-id="1174"></path></svg>